<svg width="205" height="40" viewBox="0 0 205 40" fill="none" xmlns="http://www.w3.org/2000/svg">
<path d="M53.0254 29.8659L58.2399 23.655C61.4108 26.0769 65.0399 27.0732 68.4581 27.0732C70.2108 27.0732 70.9599 26.615 70.9599 25.8223V25.7423C70.9599 24.9059 70.0436 24.4478 66.9163 23.8223C60.3708 22.4841 54.6108 20.6078 54.6108 14.4405V14.3605C54.6108 8.81141 58.9454 4.52051 66.9963 4.52051C72.6254 4.52051 76.7999 5.85869 80.1745 8.52778L75.4181 15.1169C72.6617 13.1169 69.3672 12.2369 66.6617 12.2369C65.1999 12.2369 64.5381 12.7387 64.5381 13.4441V13.5241C64.5381 14.3169 65.3308 14.8187 68.4145 15.4005C75.8836 16.775 80.8872 18.9423 80.8872 24.8259V24.9059C80.8872 31.0369 75.8399 34.7896 67.9999 34.7896C62.0799 34.7896 56.7418 33.1241 53.0254 29.8659Z" fill="white"/>
<path d="M83.1416 5.05127H92.9016V15.9749L101.2 5.05127H112.545L102.371 17.7276L112.756 34.244H101.12L95.4034 24.9858L92.9016 28.0331V34.244H83.1416V5.05127Z" fill="white"/>
<path d="M114.502 5.05127H124.262V34.244H114.502V5.05127Z" fill="white"/>
<path d="M126.844 5.05127H136.604V25.9022H150.327V34.244H126.844V5.05127Z" fill="white"/>
<path d="M152.451 5.05127H162.211V25.9022H175.935V34.244H152.451V5.05127Z" fill="white"/>
<path d="M176.473 29.8659L181.687 23.655C184.858 26.0769 188.487 27.0732 191.905 27.0732C193.658 27.0732 194.407 26.615 194.407 25.8223V25.7423C194.407 24.9059 193.491 24.4478 190.364 23.8223C183.818 22.4841 178.058 20.6078 178.058 14.4405V14.3605C178.058 8.81141 182.393 4.52051 190.444 4.52051C196.073 4.52051 200.247 5.85869 203.622 8.52778L198.865 15.1169C196.109 13.1169 192.814 12.2369 190.109 12.2369C188.647 12.2369 187.985 12.7387 187.985 13.4441V13.5241C187.985 14.3169 188.778 14.8187 191.862 15.4005C199.324 16.775 204.334 18.9423 204.334 24.8259V24.9059C204.334 31.0369 199.287 34.7896 191.447 34.7896C185.527 34.7896 180.189 33.1241 176.473 29.8659Z" fill="white"/>
<rect x="7.54102" y="5.24609" width="27.8688" height="29.836" fill="white"/>
<path d="M0 6.02181V33.9782C0 37.3018 2.69818 40 6.02181 40H33.9782C37.3018 40 40 37.3018 40 33.9782V6.02181C40 2.69818 37.3018 0 33.9782 0H6.02181C2.69818 0 0 2.69818 0 6.02181ZM11.2945 16.2182L18.8582 20.5818L11.2945 24.9454V16.2109V16.2182ZM11.2945 32.3418V28.1018L24.3273 20.5745L11.2945 13.0618V8.82181L31.6654 20.5818L11.2945 32.3418Z" fill="url(#paint0_linear_4033_80057)"/>
<defs>
<linearGradient id="paint0_linear_4033_80057" x1="19.9361" y1="0" x2="19.9361" y2="40" gradientUnits="userSpaceOnUse">
<stop stop-color="#FF1675"/>
<stop offset="1" stop-color="#770EF7"/>
</linearGradient>
</defs>
</svg>
